<svg version="1.1" id="_x32_" xmlns="http://www.w3.org/2000/svg" xmlns:xlink="http://www.w3.org/1999/xlink" x="0px" y="0px" viewBox="0 0 512 512" width="43px" height="43px" xml:space="preserve">
<g fill="grey" stroke="#666" stroke-width="5" transform-origin="center" transform="scale(0.98)">
	<path class="outline" d="M256,0C159.969,0,82.109,77.859,82.109,173.906c0,100.719,80.016,163.688,123.297,238.719
		C246.813,484.406,246.781,512,256,512s9.188-27.594,50.594-99.375c43.297-75.031,123.297-138,123.297-238.719
		C429.891,77.859,352.031,0,256,0z"></path>
</g>
<g fill="#FFF" transform="translate(102.4,20) scale(0.6)">
	<path class="station" d="M437.575,351.629V129.868C437.575,80.233,397.351,40,347.707,40H164.293c-49.625,0-89.868,40.233-89.868,89.868
		    v221.761c0,37.628,27.383,68.98,63.269,75.221L81.334,512h50.11l23.132-34.961h202.867L380.574,512h50.101l-56.35-85.15
		    C410.201,420.601,437.575,389.257,437.575,351.629z  
        M121,124.186c0-11.284,9.137-20.438,20.421-20.438h229.15c11.276,0,20.429,9.154,20.429,20.438v86.206c0,11.284-9.154,20.429-20.429,20.429
		    h-229.15c-11.284,0-20.421-9.145-20.421-20.429v-229.15z 
		M169.618,454.312l17.41-26.318h137.953l17.41,26.318H169.618z"></path>
    <g fill="grey">
        <circle cx="151" cy="304" r="30"/>
        <circle cx="361" cy="304" r="30"/>
    </g>
</g>
</svg>
